<svg width="7" height="12" viewBox="0 0 7 12" fill="none" xmlns="http://www.w3.org/2000/svg">
<path d="M0.99934 11.75C0.9008 11.7504 0.803159 11.7312 0.712147 11.6934C0.621135 11.6557 0.538585 11.6001 0.46934 11.53C0.32889 11.3893 0.25 11.1987 0.25 11C0.25 10.8012 0.32889 10.6106 0.46934 10.47L4.93934 5.99997L0.46934 1.52997C0.33686 1.38779 0.264736 1.19975 0.268165 1.00545C0.271593 0.811145 0.350306 0.62576 0.487719 0.488347C0.625132 0.350934 0.810517 0.272222 1.00482 0.268794C1.19912 0.265365 1.38716 0.337488 1.52934 0.469968L6.52934 5.46997C6.66979 5.61059 6.74868 5.80122 6.74868 5.99997C6.74868 6.19872 6.66979 6.38934 6.52934 6.52997L1.52934 11.53C1.4601 11.6001 1.37755 11.6557 1.28653 11.6934C1.19552 11.7312 1.09788 11.7504 0.99934 11.75Z" fill="#1E293B"/>
</svg>
