<svg width="12" height="12" viewBox="0 0 12 12" fill="none" xmlns="http://www.w3.org/2000/svg">
<path d="M6 12C4.81331 12 3.65328 11.6481 2.66658 10.9888C1.67989 10.3295 0.910851 9.39246 0.456725 8.2961C0.00259968 7.19975 -0.11622 5.99335 0.115291 4.82946C0.346802 3.66558 0.918247 2.59648 1.75736 1.75736C2.59648 0.918247 3.66558 0.346802 4.82946 0.115291C5.99335 -0.11622 7.19975 0.00259968 8.2961 0.456725C9.39246 0.910851 10.3295 1.67989 10.9888 2.66658C11.6481 3.65328 12 4.81331 12 6C12 7.5913 11.3679 9.11742 10.2426 10.2426C9.11742 11.3679 7.5913 12 6 12ZM6 1C5.0111 1 4.0444 1.29325 3.22215 1.84265C2.39991 2.39206 1.75904 3.17296 1.3806 4.08659C1.00217 5.00022 0.90315 6.00555 1.09608 6.97545C1.289 7.94536 1.76521 8.83627 2.46447 9.53554C3.16373 10.2348 4.05465 10.711 5.02455 10.9039C5.99446 11.0969 6.99979 10.9978 7.91342 10.6194C8.82705 10.241 9.60794 9.6001 10.1574 8.77785C10.7068 7.95561 11 6.98891 11 6C11 4.67392 10.4732 3.40215 9.53554 2.46447C8.59785 1.52679 7.32609 1 6 1Z" fill="#1E293B"/>
<path d="M3.99956 8.49998C3.93387 8.50029 3.86877 8.48748 3.8081 8.46229C3.74742 8.4371 3.69239 8.40005 3.64623 8.35331C3.55259 8.25956 3.5 8.13248 3.5 7.99998C3.5 7.86748 3.55259 7.7404 3.64623 7.64665L7.64623 3.64665C7.74101 3.55833 7.86637 3.51024 7.99591 3.51253C8.12544 3.51481 8.24903 3.56729 8.34064 3.6589C8.43225 3.75051 8.48472 3.8741 8.48701 4.00363C8.4893 4.13317 8.44121 4.25853 8.35289 4.35331L4.35289 8.35331C4.30673 8.40005 4.2517 8.4371 4.19102 8.46229C4.13035 8.48748 4.06525 8.50029 3.99956 8.49998Z" fill="#1E293B"/>
<path d="M7.99925 8.49998C7.93355 8.50029 7.86846 8.48748 7.80779 8.46229C7.74711 8.4371 7.69208 8.40005 7.64591 8.35331L3.64591 4.35331C3.55759 4.25853 3.50951 4.13317 3.5118 4.00363C3.51408 3.8741 3.56656 3.75051 3.65817 3.6589C3.74977 3.56729 3.87336 3.51481 4.0029 3.51253C4.13243 3.51024 4.2578 3.55833 4.35258 3.64665L8.35258 7.64665C8.44621 7.7404 8.49881 7.86748 8.49881 7.99998C8.49881 8.13248 8.44621 8.25956 8.35258 8.35331C8.30642 8.40005 8.25138 8.4371 8.19071 8.46229C8.13003 8.48748 8.06494 8.50029 7.99925 8.49998Z" fill="#1E293B"/>
</svg>
