<svg xmlns="http://www.w3.org/2000/svg" width="137" height="24" viewBox="0 0 137 24" fill="none">
<path d="M135.044 3.43023C134.425 2.78154 133.684 2.26918 132.865 1.92456C132.045 1.57993 131.166 1.4103 130.281 1.42605H118.496V22.5643H122.64V15.1429H130.284C131.169 15.1587 132.049 14.9891 132.868 14.6444C133.687 14.2998 134.429 13.7875 135.048 13.1388C135.676 12.5124 136.174 11.7611 136.509 10.9308C136.844 10.1006 137.01 9.20893 136.997 8.31053C137.013 7.40371 136.848 6.50313 136.512 5.66396C136.177 4.82479 135.677 4.0647 135.044 3.43023ZM132.11 10.1618C131.875 10.4151 131.592 10.6161 131.278 10.7521C130.963 10.8882 130.625 10.9563 130.284 10.9524H122.628V5.64589H130.284C130.625 5.64052 130.963 5.70741 131.277 5.84235C131.591 5.97728 131.875 6.17736 132.11 6.42999C132.353 6.67674 132.545 6.9709 132.675 7.29503C132.805 7.61917 132.87 7.96669 132.866 8.31704C132.868 8.66237 132.803 9.00465 132.673 9.32333C132.543 9.64201 132.352 9.93052 132.11 10.1716V10.1618Z" fill="#09AD67"/>
<path d="M34.12 0.502035C32.6379 0.472981 31.1657 0.755343 29.7943 1.3317C28.4228 1.90806 27.1812 2.7662 26.1459 3.85317C25.0861 4.90766 24.2482 6.17335 23.684 7.57225C23.1198 8.97114 22.8413 10.4736 22.8655 11.987C22.8356 13.506 23.1114 15.0151 23.6758 16.4201C24.2402 17.8251 25.0811 19.0959 26.1459 20.1534C27.1824 21.2382 28.4244 22.0946 29.7957 22.6697C31.167 23.2449 32.6385 23.5267 34.12 23.498C35.5958 23.5234 37.0612 23.2398 38.4263 22.6647C39.7915 22.0896 41.0276 21.2351 42.0591 20.1534C43.1223 19.0968 43.9618 17.8274 44.5256 16.4242C45.0894 15.021 45.3654 13.5139 45.3364 11.9968C45.3605 10.4837 45.0821 8.98153 44.5185 7.58273C43.9549 6.18393 43.118 4.91805 42.0591 3.86293C41.0297 2.77739 39.7942 1.9192 38.4289 1.3412C37.0635 0.763195 35.5971 0.477614 34.12 0.502035Z" fill="#09AD67"/>
<path d="M72.2011 14.1018H84.9164V9.86569H72.2011V5.67189H85.6087V1.43579H68.0664V22.5642H85.6087V18.3281H72.2011V14.1018Z" fill="#3A3B39"/>
<path d="M94.2995 10.0414C93.9221 9.65308 93.4408 9.38827 92.9164 9.28045C92.392 9.17263 91.8482 9.22665 91.3538 9.43567C90.8593 9.64469 90.4366 9.99931 90.139 10.4546C89.8415 10.91 89.6824 11.4455 89.6821 11.9935C89.6567 12.3726 89.7077 12.753 89.8318 13.1111C89.956 13.4692 90.1507 13.7973 90.4038 14.0751C90.657 14.3529 90.9632 14.5743 91.3034 14.7257C91.6436 14.8772 92.0105 14.9553 92.3814 14.9553C92.7524 14.9553 93.1193 14.8772 93.4595 14.7257C93.7997 14.5743 94.1059 14.3529 94.3591 14.0751C94.6122 13.7973 94.8069 13.4692 94.931 13.1111C95.0552 12.753 95.1061 12.3726 95.0807 11.9935C95.0888 11.6305 95.0236 11.2697 94.8891 10.9338C94.7547 10.5979 94.554 10.2941 94.2995 10.0414Z" fill="#09AD67"/>
<path d="M61.8421 14.59C62.6042 14.2455 63.2951 13.7552 63.8777 13.1454C64.5082 12.5187 65.007 11.7665 65.3434 10.9351C65.6798 10.1037 65.8468 9.21057 65.8339 8.31064C65.8493 7.40358 65.6837 6.50287 65.3473 5.66368C65.011 4.8245 64.5109 4.06453 63.8777 3.43034C63.2612 2.77821 62.5199 2.26358 61.7002 1.9187C60.8805 1.57383 60.0001 1.40614 59.1142 1.42616H47.3008V22.5644H51.4291V15.1431H57.6852L61.6579 22.5579H65.7863L61.5912 14.7071L61.8421 14.59ZM60.9561 10.1782C60.7199 10.4327 60.4349 10.6345 60.1191 10.7711C59.8033 10.9077 59.4634 10.9761 59.1206 10.972H51.4291V5.67202H59.0952C59.4352 5.66902 59.7725 5.73505 60.0876 5.8663C60.4026 5.99756 60.6892 6.19144 60.9307 6.43676C61.1722 6.68208 61.3639 6.97397 61.4947 7.2956C61.6255 7.61722 61.6929 7.96221 61.6929 8.31064C61.6991 8.65671 61.6371 9.00051 61.5105 9.32142C61.3839 9.64234 61.1953 9.93374 60.9561 10.1782Z" fill="#3A3B39"/>
<path d="M115.792 1.43579H111.248L105.662 8.94494L100.076 1.43579H95.5312L103.394 12.0065L95.5312 22.5642H100.076L105.662 15.0551L111.248 22.5642H115.792L107.935 12.0065L115.792 1.43579Z" fill="#09AD67"/>
<path d="M21.5036 17.9833C20.1453 20.1921 18.0778 21.8466 15.6572 22.6619C15.3339 22.7733 15.0054 22.8678 14.6727 22.945L14.3774 23.01C14.2917 23.0296 14.2059 23.0458 14.117 23.0588C13.284 23.2139 12.4389 23.2901 11.5924 23.2866C10.7406 23.289 9.89027 23.2128 9.05183 23.0588L8.9375 23.0393L8.63899 22.9775C6.2444 22.4455 4.09282 21.1068 2.52773 19.1753C0.962642 17.2438 0.0742764 14.8308 0.00445427 12.3215C-0.0653679 9.81217 0.687379 7.35122 2.14253 5.33151C3.59767 3.3118 5.67132 1.84977 8.03244 1.17883L8.35001 1.09749L8.64217 1.02917L8.88987 0.977113L8.99784 0.957592C9.85238 0.793901 10.7198 0.711129 11.5892 0.710323C12.4347 0.706781 13.2788 0.783019 14.1106 0.93807L14.371 0.986873L14.714 1.0617C14.9268 1.11051 15.1332 1.16907 15.3491 1.23414C15.4794 1.26993 15.6064 1.31223 15.7302 1.35452C17.5185 1.96934 19.1212 3.04755 20.3826 4.48442C20.7992 4.95996 21.1763 5.47038 21.5099 6.01033L20.5572 6.59596L17.6769 8.36589C17.3036 7.78156 16.8428 7.26112 16.3114 6.82371C16.1144 6.64561 15.9018 6.48659 15.6762 6.34869C15.2913 6.10273 14.88 5.90295 14.4504 5.7533C14.1958 5.65978 13.936 5.58156 13.6724 5.51904C12.9877 5.35375 12.2863 5.27185 11.5828 5.27503C10.8456 5.27223 10.1108 5.36182 9.3948 5.54182C9.3154 5.56134 9.23919 5.58086 9.16297 5.60689C8.99784 5.65569 8.84541 5.70775 8.68027 5.76631C8.26527 5.9182 7.868 6.1168 7.49575 6.35846C7.29693 6.48544 7.10794 6.62793 6.93049 6.78467C6.1591 7.40572 5.53546 8.19815 5.10662 9.10217C4.67779 10.0062 4.45497 10.9982 4.45497 12.0033C4.45497 13.0085 4.67779 14.0005 5.10662 14.9045C5.53546 15.8085 6.1591 16.601 6.93049 17.222C6.97177 17.2578 7.01305 17.2936 7.05751 17.3261C7.19883 17.4441 7.34733 17.5528 7.50211 17.6515C7.85577 17.8757 8.23151 18.0611 8.62311 18.2046L8.68027 18.2273C8.74949 18.2571 8.82057 18.2821 8.89304 18.3022H8.9248C9.00101 18.3282 9.07723 18.3542 9.15662 18.3738L9.4075 18.4421H9.47736C10.8604 18.7718 12.2989 18.7718 13.6819 18.4421C13.9455 18.3796 14.2053 18.3013 14.46 18.2078C14.8884 18.0593 15.2986 17.8606 15.6826 17.6157C15.919 17.4674 16.1403 17.2952 16.3431 17.1016C16.8525 16.671 17.2958 16.1643 17.6579 15.5985L20.5413 17.3717L21.5036 17.9833Z" fill="#3A3B39"/>
</svg>